<svg xmlns="http://www.w3.org/2000/svg" width="101" height="93.99" viewBox="0 0 101 93.99">
  <path id="_3085265251536559839" data-name="3085265251536559839" d="M103.711,64.382H87.639L98.053,51.33c.037-.047.072-.1.1-.146A25.068,25.068,0,0,0,102.212,37.6,25.324,25.324,0,0,0,53.35,28.277,25.295,25.295,0,1,0,9.564,52.669l42.4,52.947a1.781,1.781,0,0,0,1.389.667h0a1.778,1.778,0,0,0,1.389-.669L84.8,67.94h18.912a1.779,1.779,0,1,0,0-3.558ZM8.05,37.6a21.76,21.76,0,0,1,43.521,0,1.78,1.78,0,1,0,3.559,0,21.761,21.761,0,0,1,43.522,0,21.507,21.507,0,0,1-3.438,11.58l-12.128,15.2H70.45L64.508,43.415a1.751,1.751,0,0,0-1.774-1.293,1.78,1.78,0,0,0-1.68,1.412l-7.564,36L46.339,43.553a1.78,1.78,0,0,0-3.46-.132L37.743,61.827H21.88a1.817,1.817,0,0,0-.388.045L12.383,50.5A21.569,21.569,0,0,1,8.05,37.6Zm45.3,64.054L24.306,65.386H39.094a1.78,1.78,0,0,0,1.714-1.3L44.3,51.565,51.7,88.77A1.78,1.78,0,0,0,53.431,90.2h.009a1.78,1.78,0,0,0,1.742-1.413l7.87-37.457,4.339,15.314A1.78,1.78,0,0,0,69.1,67.942H80.244Z" transform="translate(-4.491 -12.293)" fill="#e7bf74"/>
</svg>
