<svg xmlns="http://www.w3.org/2000/svg" width="94.416" height="118.559" viewBox="0 0 94.416 118.559">
  <g id="Healthy_tooth" transform="translate(-68.409 -22.444)">
    <path id="Path_1" data-name="Path 1" d="M148.661,118.409a36.261,36.261,0,0,1-10.576-1.6l-8.909-2.7a13.01,13.01,0,0,0-6.612-.35,1.27,1.27,0,0,1-.546-2.48,15.53,15.53,0,0,1,7.893.4l8.909,2.7a33.33,33.33,0,0,0,19.68,0l8.911-2.7a15.09,15.09,0,0,1,10.079.254,1.269,1.269,0,1,1-.929,2.36,12.547,12.547,0,0,0-8.414-.2l-8.911,2.7A36.329,36.329,0,0,1,148.661,118.409Z" transform="translate(-39.259 -66.035)" fill="#e7bf74"/>
    <path id="Path_2" data-name="Path 2" d="M126.622,259.312h-.048A4.673,4.673,0,0,1,122.006,255c-1.241-16.211-7.3-36.012-12.6-36.012s-11.355,19.8-12.6,36.015a4.67,4.67,0,0,1-4.568,4.315H92.2a9.6,9.6,0,0,1-9.107-7.459L69.392,194.6a34.292,34.292,0,0,1-.706-12.5,1.27,1.27,0,1,1,2.518.33,31.726,31.726,0,0,0,.655,11.574l13.693,57.259a7.137,7.137,0,0,0,6.64,5.51h.028a2.117,2.117,0,0,0,2.063-1.972A110.938,110.938,0,0,1,99.1,230.269c3.046-9.175,6.5-13.827,10.307-13.827s7.274,4.652,10.31,13.827a111.5,111.5,0,0,1,4.822,24.53,2.119,2.119,0,0,0,2.063,1.975h.028a7.113,7.113,0,0,0,6.637-5.51l10.812-45.2a1.269,1.269,0,0,1,2.467.591l-10.822,45.2A9.6,9.6,0,0,1,126.622,259.312Z" transform="translate(0 -118.311)" fill="#e7bf74"/>
    <path id="Path_3" data-name="Path 3" d="M79.78,134.577a1.269,1.269,0,0,1-1.142-1.815,20.812,20.812,0,0,1,4.51-6.31,1.27,1.27,0,1,1,1.736,1.855,18.135,18.135,0,0,0-3.962,5.543A1.269,1.269,0,0,1,79.78,134.577Z" transform="translate(-7.54 -77.354)" fill="#e7bf74"/>
    <path id="Path_4" data-name="Path 4" d="M144.9,224.09a1.269,1.269,0,0,1-1.246-1.03c-1.563-8.147-2.563-9.137-10.711-10.711a1.269,1.269,0,0,1,0-2.492c8.147-1.563,9.137-2.566,10.711-10.713a1.269,1.269,0,0,1,2.492,0c1.563,8.147,2.566,9.15,10.713,10.713a1.269,1.269,0,0,1,0,2.492c-8.147,1.563-9.137,2.563-10.713,10.711A1.269,1.269,0,0,1,144.9,224.09ZM138.489,211.1a8.955,8.955,0,0,1,6.411,6.411,8.963,8.963,0,0,1,6.411-6.411,8.963,8.963,0,0,1-6.411-6.411A8.955,8.955,0,0,1,138.489,211.1Z" transform="translate(-47.576 -131.084)" fill="#e7bf74"/>
    <path id="Path_5" data-name="Path 5" d="M209.38,43.956a1.269,1.269,0,0,1-1.246-1.03c-1.251-6.518-1.964-7.231-8.48-8.48a1.269,1.269,0,0,1,0-2.492c6.515-1.251,7.228-1.964,8.48-8.48a1.269,1.269,0,0,1,2.492,0c1.251,6.515,1.964,7.228,8.48,8.48a1.269,1.269,0,0,1,0,2.492c-6.515,1.249-7.228,1.962-8.48,8.48A1.269,1.269,0,0,1,209.38,43.956ZM204.913,33.2a7.07,7.07,0,0,1,4.467,4.464,7.1,7.1,0,0,1,4.467-4.464,7.074,7.074,0,0,1-4.467-4.467,7.093,7.093,0,0,1-4.472,4.467Z" transform="translate(-97.529 0)" fill="#e7bf74"/>
    <path id="Path_6" data-name="Path 6" d="M330.65,150.706a1.269,1.269,0,0,1-1.269-1.03c-2.066-10.759-3.388-12.081-14.147-14.145a1.269,1.269,0,0,1,0-2.492c10.759-2.063,12.081-3.386,14.147-14.145a1.269,1.269,0,0,1,2.492,0c2.063,10.759,3.386,12.081,14.145,14.145a1.269,1.269,0,0,1,0,2.492c-10.759,2.063-12.081,3.386-14.145,14.145A1.269,1.269,0,0,1,330.65,150.706Zm-9.495-16.421c5.584,1.624,7.868,3.911,9.495,9.492,1.622-5.584,3.911-7.868,9.492-9.492-5.584-1.624-7.868-3.911-9.492-9.492-1.637,5.581-3.926,7.868-9.508,9.492Z" transform="translate(-184.222 -71.202)" fill="#e7bf74"/>
  </g>
</svg>
