<svg xmlns="http://www.w3.org/2000/svg" width="59.974" height="104" viewBox="0 0 59.974 104">
  <g id="Dental_implants" transform="translate(-117.033 -15.001)">
    <path id="Path_10" data-name="Path 10" d="M171.749,18.121a11.01,11.01,0,0,0-11.138-2.581h0l-6.473,1.966a24.121,24.121,0,0,1-14.228,0l-6.486-1.966a10.992,10.992,0,0,0-11.136,2.589c-4.607,4.341-6.387,12.15-4.531,19.894l2.7,11.276a5.062,5.062,0,0,0,4.932,3.892h3.949v5.515a4.559,4.559,0,0,0,4.553,4.553h1.232V74.173l-1.6.46a1.079,1.079,0,0,0,.3,2.117,1.092,1.092,0,0,0,.3-.043l1.005-.289V81l-1.6.455a1.08,1.08,0,0,0,.6,2.076l1.005-.289v4.585l-1.6.46a1.079,1.079,0,0,0,.3,2.117,1.092,1.092,0,0,0,.3-.043l1.005-.289v4.585l-1.6.46a1.08,1.08,0,1,0,.6,2.076l1.005-.289v4.585l-1.6.466a1.079,1.079,0,0,0,.3,2.117,1.092,1.092,0,0,0,.3-.043l1.005-.289v3.178a6.486,6.486,0,0,0,1.836,4.531l5.394,5.567A6.473,6.473,0,0,0,147.018,119h0a6.46,6.46,0,0,0,4.671-1.974l5.433-5.578a6.486,6.486,0,0,0,1.845-4.531V96.883l1.6-.462a1.079,1.079,0,1,0-.6-2.074l-1.005.289V90.052l1.6-.46a1.079,1.079,0,1,0-.6-2.074l-1.005.287V83.22l1.6-.468a1.079,1.079,0,1,0-.6-2.074l-1.005.289V76.391l1.6-.46a1.08,1.08,0,1,0-.6-2.076l-1.005.289V69.56l1.6-.46a1.079,1.079,0,1,0-.6-2.074l-1.005.289V63.255h1.18A4.559,4.559,0,0,0,164.7,58.7V53.192h3.949a5.062,5.062,0,0,0,4.939-3.9l2.7-11.276C178.136,30.271,176.362,22.462,171.749,18.121Zm-14.94,88.8a4.335,4.335,0,0,1-1.234,3.038l-5.42,5.573a4.315,4.315,0,0,1-3.124,1.314h0a4.315,4.315,0,0,1-3.126-1.327l-5.394-5.567a4.337,4.337,0,0,1-1.232-3.032v-3.8l19.531-5.61Zm0-11.651-19.531,5.61V96.283l19.531-5.61Zm0-6.829-19.531,5.61V89.454l19.531-5.61Zm0-6.831-19.531,5.61V82.623l19.531-5.61Zm0-6.829-19.531,5.61V75.794l19.531-5.61Zm0-6.831-19.531,5.61V63.264h19.531Zm5.744-9.244a2.4,2.4,0,0,1-2.4,2.4h-26.27a2.4,2.4,0,0,1-2.4-2.4V53.192h31.06ZM174.2,37.512l-2.7,11.278a2.909,2.909,0,0,1-2.859,2.244H125.387a2.909,2.909,0,0,1-2.839-2.24l-2.7-11.278c-1.648-6.9-.076-14.059,3.916-17.82a8.81,8.81,0,0,1,6.117-2.537,10.012,10.012,0,0,1,2.913.453l6.473,1.966a26.218,26.218,0,0,0,15.479,0l6.473-1.966a8.83,8.83,0,0,1,9.03,2.086c4.009,3.754,5.582,10.916,3.933,17.814Z" transform="translate(0 0)" fill="#e7bf74"/>
  </g>
</svg>
